<?xml version="1.0" encoding="utf-8"?>
<!-- Generator: Adobe Illustrator 16.0.3, SVG Export Plug-In . SVG Version: 6.00 Build 0)  -->
<!DOCTYPE svg PUBLIC "-//W3C//DTD SVG 1.1//EN" "http://www.w3.org/Graphics/SVG/1.1/DTD/svg11.dtd">
<svg version="1.1" id="Capa_1" xmlns="http://www.w3.org/2000/svg" xmlns:xlink="http://www.w3.org/1999/xlink" x="0px" y="0px"
	 width="512px" height="128px" viewBox="0 0 512 128" enable-background="new 0 0 512 128" xml:space="preserve">
<path fill-rule="evenodd" clip-rule="evenodd" fill="#FFFFFF" d="M113.652,68.457c0,27.517-22.307,49.824-49.824,49.824
	c-27.517,0-49.824-22.308-49.824-49.824c0-27.518,22.307-49.824,49.824-49.824C91.345,18.633,113.652,40.939,113.652,68.457z"/>
<path fill-rule="evenodd" clip-rule="evenodd" fill="#D72026" d="M35.677,68.59c-6.669,0-13.339,0-20.009,0
	c-0.355,0-0.712,0.007-1.067-0.005c-0.534-0.019-0.589-0.071-0.597-0.636c-0.039-2.588,0.217-5.153,0.662-7.697
	c1.656-9.475,5.662-17.834,12.104-24.978c7.278-8.071,16.258-13.252,26.891-15.542c4.46-0.961,8.978-1.309,13.521-0.976
	c13.06,0.958,24.167,6.152,33.198,15.645c6.467,6.797,10.603,14.859,12.573,24.027c0.655,3.05,0.953,6.146,1.045,9.262
	c0.005,0.178-0.003,0.355-0.014,0.533c-0.012,0.205-0.135,0.326-0.333,0.34c-0.31,0.021-0.621,0.025-0.932,0.025
	c-13.517,0.001-27.034,0.002-40.551,0c-1.432,0-1.293,0.105-1.294-1.287c-0.003-4.891-0.001-9.782,0-14.673
	c0-0.311,0.006-0.622,0.015-0.933c0.005-0.187,0.081-0.337,0.243-0.442c0.26-0.17,0.524-0.336,0.774-0.521
	c4.472-3.3,6.353-7.754,5.803-13.238c-0.29-2.89-1.31-5.523-3.149-7.804c-1.188-1.474-2.603-2.676-4.338-3.46
	c-0.771-0.348-1.569-0.625-2.437-0.612c-1.173,0.018-1.918,0.705-1.953,1.893c-0.037,1.244-0.012,2.49-0.012,3.734
	c0,1.957,0.001,3.914-0.002,5.87c0,0.31-0.005,0.623-0.048,0.928c-0.015,0.105-0.139,0.212-0.237,0.285
	c-0.063,0.046-0.172,0.042-0.259,0.041c-3.779-0.103-3.049,0.751-3.11-2.836c-0.04-2.4-0.007-4.802-0.008-7.204
	c0-0.311,0.012-0.624-0.012-0.933c-0.078-1.048-0.739-1.688-1.802-1.775c-0.875-0.072-1.669,0.201-2.435,0.574
	c-1.336,0.651-2.464,1.585-3.46,2.676c-2.711,2.968-4.299,6.432-4.288,10.483c0.014,4.823,2.077,8.643,5.998,11.455
	c0.181,0.129,0.355,0.282,0.557,0.365c0.638,0.261,0.754,0.746,0.751,1.382c-0.02,4.979-0.011,9.96-0.012,14.94
	c0,0.222-0.007,0.444-0.016,0.666c-0.011,0.265-0.164,0.404-0.417,0.415c-0.355,0.016-0.711,0.012-1.067,0.012
	C49.194,68.59,42.436,68.59,35.677,68.59z"/>
<path fill-rule="evenodd" clip-rule="evenodd" fill="#3173AF" d="M60.466,81.59c-0.408-0.275-0.722-0.186-1.019-0.187
	c-6.625-0.006-13.249-0.005-19.874-0.005c-0.133,0-0.268,0.014-0.4-0.001c-0.508-0.06-0.818,0.197-1.086,0.599
	c-0.567,0.851-1.164,1.682-1.748,2.521c-1.65,2.371-3.299,4.744-4.951,7.114c-0.203,0.291-0.395,0.597-0.639,0.852
	c-0.702,0.733-1.74,0.842-2.551,0.297c-0.851-0.572-1.149-1.651-0.688-2.591c0.156-0.316,0.372-0.605,0.575-0.897
	c1.571-2.264,3.149-4.522,4.714-6.791c0.195-0.283,0.482-0.526,0.505-0.916c-0.125-0.274-0.379-0.179-0.577-0.18
	c-2.267-0.009-4.535-0.005-6.802-0.007c-0.355-0.001-0.715,0.018-1.065-0.026c-1.103-0.139-1.919-1.027-1.878-2.072
	c0.049-1.224,1.048-1.974,1.967-1.971c0.355,0.001,0.711-0.008,1.067-0.008c25.342-0.001,50.684-0.001,76.026,0
	c0.4,0,0.803-0.017,1.2,0.02c1.076,0.099,1.823,0.876,1.867,1.909c0.042,1.019-0.64,1.896-1.674,2.096
	c-0.345,0.066-0.708,0.051-1.063,0.051c-2.089,0.005-4.179,0.002-6.269,0.004c-0.222,0.001-0.445,0.009-0.666,0.023
	c-0.185,0.013-0.302,0.22-0.206,0.379c0.184,0.302,0.375,0.601,0.578,0.892c1.548,2.226,3.101,4.447,4.648,6.675
	c0.202,0.291,0.411,0.585,0.558,0.905c0.41,0.887,0.118,1.889-0.688,2.471c-0.795,0.574-1.821,0.497-2.549-0.229
	c-0.28-0.28-0.507-0.618-0.735-0.945c-2.136-3.062-4.268-6.127-6.4-9.192c-0.127-0.182-0.251-0.366-0.376-0.551
	c-0.185-0.271-0.421-0.444-0.771-0.426c-0.222,0.011-0.444-0.002-0.667-0.002c-6.847,0-13.694,0-20.541,0.002
	c-0.31,0-0.623,0.003-0.93,0.041c-0.136,0.018-0.21,0.18-0.13,0.301c0.194,0.294,0.408,0.577,0.631,0.851
	c2.584,3.171,5.171,6.338,7.756,9.507c0.309,0.379,0.661,0.734,0.904,1.152c0.316,0.547,0.758,0.652,1.336,0.649
	c3.334-0.018,6.669-0.009,10.003-0.008c0.356,0.001,0.715-0.017,1.065,0.025c1.054,0.126,1.768,0.941,1.776,1.99
	c0.007,1.03-0.714,1.884-1.748,2.026c-0.35,0.049-0.709,0.031-1.065,0.031c-2.356,0.002-4.713,0.001-7.069,0.002
	c-0.267,0-0.534-0.001-0.8,0.012c-0.253,0.012-0.406,0.239-0.296,0.447c0.167,0.314,0.348,0.62,0.533,0.924
	c1.199,1.976,2.402,3.948,3.599,5.926c0.253,0.418,0.518,0.834,0.715,1.278c0.407,0.919,0.096,1.896-0.737,2.456
	c-0.83,0.557-1.851,0.457-2.545-0.29c-0.269-0.289-0.478-0.64-0.685-0.979c-1.341-2.202-2.67-4.41-4.013-6.609
	c-0.202-0.332-0.318-0.742-0.805-0.947c-0.344,0.607-0.695,1.213-1.034,1.825c-1.057,1.903-2.104,3.813-3.166,5.714
	c-0.194,0.347-0.394,0.704-0.663,0.991c-0.706,0.754-1.692,0.841-2.542,0.288c-0.688-0.448-1.228-1.558-0.748-2.457
	c0.313-0.588,0.609-1.186,0.933-1.768c1.466-2.643,2.938-5.281,4.409-7.922c0.086-0.155,0.172-0.311,0.254-0.468
	c0.161-0.306,0.138-0.597-0.076-0.87c-0.137-0.175-0.271-0.354-0.411-0.525c-2.81-3.444-5.62-6.889-8.433-10.331
	c-0.139-0.17-0.298-0.324-0.433-0.47c-0.335,0.045-0.473,0.287-0.635,0.485c-2.84,3.478-5.677,6.958-8.514,10.438
	c-0.112,0.138-0.222,0.277-0.335,0.414c-0.227,0.273-0.222,0.547-0.051,0.854c0.648,1.165,1.281,2.339,1.927,3.506
	c1.077,1.943,2.161,3.883,3.239,5.825c0.151,0.271,0.313,0.54,0.429,0.827c0.389,0.963,0.023,2.014-0.86,2.528
	c-0.899,0.523-1.951,0.313-2.609-0.548c-0.215-0.281-0.378-0.602-0.55-0.912c-1.166-2.098-2.328-4.197-3.49-6.296
	c-0.13-0.234-0.255-0.47-0.39-0.699c-0.299-0.508-0.427-0.521-0.714-0.055c-0.583,0.945-1.157,1.897-1.732,2.847
	c-0.899,1.482-1.793,2.968-2.698,4.446c-0.184,0.301-0.374,0.61-0.616,0.864c-0.713,0.748-1.712,0.849-2.542,0.29
	c-0.809-0.543-1.13-1.563-0.753-2.467c0.119-0.285,0.296-0.547,0.457-0.813c1.292-2.127,2.588-4.252,3.876-6.381
	c0.206-0.34,0.386-0.696,0.55-1.059c0.049-0.107-0.003-0.275-0.17-0.286c-0.354-0.023-0.709-0.034-1.064-0.034
	c-2.756-0.003-5.513-0.001-8.27-0.002c-0.355-0.001-0.715,0.018-1.066-0.026c-1.092-0.135-1.897-1.053-1.857-2.085
	c0.038-0.983,0.837-1.829,1.863-1.94c0.352-0.039,0.71-0.021,1.066-0.022c3.557-0.001,7.114,0,10.67-0.001
	c0.267,0,0.535-0.017,0.8,0.003c0.479,0.034,0.809-0.124,1.125-0.528c1.342-1.714,2.729-3.395,4.105-5.083
	c1.601-1.964,3.208-3.923,4.809-5.888C60.064,82.159,60.236,81.902,60.466,81.59z"/>
<path fill-rule="evenodd" clip-rule="evenodd" fill="#D72026" d="M69.556,35.584c0-1.245-0.005-2.489,0.005-3.732
	c0.001-0.2-0.096-0.469,0.191-0.563c0.188-0.062,0.325,0.088,0.461,0.196c0.986,0.779,1.811,1.701,2.451,2.786
	c3.531,5.983,0.169,13.701-6.786,15.019c-6.45,1.222-11.132-3.456-11.853-8.262c-0.552-3.673,0.618-6.731,3.332-9.227
	c0.163-0.15,0.336-0.293,0.521-0.414c0.1-0.064,0.237-0.102,0.355-0.1c0.184,0.002,0.175,0.181,0.181,0.299
	c0.018,0.354,0.017,0.71,0.017,1.065c0.001,1.956,0,3.911,0,5.866c0,0.222-0.002,0.444,0.001,0.667
	c0.034,2.017,0.913,2.896,2.964,2.917c1.732,0.019,3.466,0.005,5.199,0.003c0.222,0,0.446,0.006,0.666-0.024
	c1.412-0.193,2.24-1.071,2.28-2.496c0.037-1.332,0.008-2.667,0.008-3.999C69.552,35.584,69.554,35.584,69.556,35.584z"/>
<path fill-rule="evenodd" clip-rule="evenodd" fill="#D72228" d="M62.587,60.86c0-2.083-0.001-4.167,0.001-6.251
	c0-0.354,0.006-0.709,0.024-1.063c0.01-0.19,0.115-0.326,0.316-0.355c0.087-0.012,0.177-0.01,0.266-0.009
	c0.792,0.014,1.584,0.028,2.376,0.042c0.389,0.8,0.16,1.65,0.167,2.473c0.031,3.813,0.015,7.625,0.013,11.438
	c0,0.354-0.009,0.709-0.022,1.063c-0.007,0.199-0.117,0.352-0.316,0.354c-0.84,0.013-1.682,0.016-2.522-0.002
	c-0.194-0.004-0.281-0.186-0.287-0.377c-0.009-0.31-0.014-0.62-0.015-0.93C62.586,65.115,62.587,62.988,62.587,60.86z"/>
<g>
	<path fill="#D62126" d="M123.617,30.893H131c4.766,0,7.988,0.219,9.668,0.656s2.957,1.156,3.832,2.156s1.422,2.113,1.641,3.34
		s0.328,3.637,0.328,7.23v13.289c0,3.406-0.16,5.684-0.48,6.832s-0.879,2.047-1.676,2.695s-1.781,1.102-2.953,1.359
		s-2.938,0.387-5.297,0.387h-12.445V30.893z M133.484,37.385v24.961c1.422,0,2.297-0.285,2.625-0.855s0.492-2.121,0.492-4.652
		V42.096c0-1.719-0.055-2.82-0.164-3.305s-0.359-0.84-0.75-1.066S134.563,37.385,133.484,37.385z"/>
	<path fill="#D62126" d="M180.594,30.893v37.945h-8.625l-0.012-25.617l-3.434,25.617h-6.117l-3.621-25.031l-0.012,25.031h-8.625
		V30.893h12.768c0.379,2.281,0.769,4.97,1.171,8.067l1.401,9.652l2.268-17.719H180.594z"/>
	<path d="M213.922,42.377h-9.164v-2.813c0-1.313-0.117-2.148-0.352-2.508s-0.625-0.539-1.172-0.539
		c-0.594,0-1.043,0.242-1.348,0.728c-0.305,0.484-0.457,1.219-0.457,2.204c0,1.267,0.171,2.221,0.514,2.861
		c0.327,0.642,1.257,1.415,2.789,2.32c4.392,2.607,7.159,4.746,8.299,6.418s1.711,4.367,1.711,8.086
		c0,2.703-0.316,4.695-0.949,5.977s-1.855,2.355-3.668,3.223s-3.922,1.301-6.328,1.301c-2.641,0-4.895-0.5-6.762-1.5
		s-3.09-2.273-3.668-3.82s-0.867-3.742-0.867-6.586v-2.484h9.164v4.617c0,1.422,0.129,2.336,0.387,2.742s0.715,0.609,1.371,0.609
		s1.145-0.258,1.465-0.773s0.48-1.281,0.48-2.297c0-2.234-0.305-3.695-0.914-4.383c-0.625-0.688-2.164-1.836-4.617-3.445
		c-2.453-1.625-4.078-2.805-4.875-3.539s-1.457-1.75-1.98-3.047s-0.785-2.953-0.785-4.969c0-2.906,0.371-5.031,1.113-6.375
		s1.941-2.395,3.598-3.152s3.656-1.137,6-1.137c2.563,0,4.746,0.414,6.551,1.242s3,1.871,3.586,3.129s0.879,3.395,0.879,6.41V42.377
		z"/>
	<path d="M248.281,30.893v37.945h-8.625l-0.012-25.617l-3.434,25.617h-6.117l-3.621-25.031l-0.012,25.031h-8.625V30.893h12.768
		c0.379,2.281,0.769,4.97,1.171,8.067l1.401,9.652l2.268-17.719H248.281z"/>
	<path d="M269.299,30.893l5.643,37.945h-10.084l-0.529-6.82h-3.529l-0.594,6.82h-10.201l5.033-37.945H269.299z M264.069,55.291
		c-0.499-4.298-1.001-9.61-1.503-15.938c-1.005,7.266-1.637,12.579-1.894,15.938H264.069z"/>
	<path d="M276.617,30.893h6.984c4.656,0,7.809,0.18,9.457,0.539s2.992,1.277,4.031,2.754s1.559,3.832,1.559,7.066
		c0,2.953-0.367,4.938-1.102,5.953s-2.18,1.625-4.336,1.828c1.953,0.484,3.266,1.133,3.938,1.945s1.09,1.559,1.254,2.238
		s0.246,2.551,0.246,5.613v10.008h-9.164V56.229c0-2.031-0.16-3.289-0.48-3.773s-1.16-0.727-2.52-0.727v17.109h-9.867V30.893z
		 M286.484,37.385v8.438c1.109,0,1.887-0.152,2.332-0.457s0.668-1.293,0.668-2.965v-2.086c0-1.203-0.215-1.992-0.645-2.367
		S287.625,37.385,286.484,37.385z"/>
	<path d="M322.344,30.893v7.594h-5.859v30.352h-9.867V38.486h-5.836v-7.594H322.344z"/>
	<path d="M353.961,42.377h-9.164v-2.813c0-1.313-0.117-2.148-0.352-2.508s-0.625-0.539-1.172-0.539
		c-0.594,0-1.043,0.242-1.348,0.728c-0.305,0.484-0.457,1.219-0.457,2.204c0,1.267,0.171,2.221,0.514,2.861
		c0.327,0.642,1.257,1.415,2.788,2.32c4.393,2.607,7.159,4.746,8.3,6.418s1.711,4.367,1.711,8.086c0,2.703-0.316,4.695-0.949,5.977
		s-1.855,2.355-3.668,3.223s-3.922,1.301-6.328,1.301c-2.641,0-4.895-0.5-6.762-1.5s-3.09-2.273-3.668-3.82
		s-0.867-3.742-0.867-6.586v-2.484h9.164v4.617c0,1.422,0.129,2.336,0.387,2.742s0.715,0.609,1.371,0.609s1.145-0.258,1.465-0.773
		s0.48-1.281,0.48-2.297c0-2.234-0.305-3.695-0.914-4.383c-0.625-0.688-2.164-1.836-4.617-3.445
		c-2.453-1.625-4.078-2.805-4.875-3.539s-1.457-1.75-1.98-3.047s-0.785-2.953-0.785-4.969c0-2.906,0.371-5.031,1.113-6.375
		s1.941-2.395,3.598-3.152s3.656-1.137,6-1.137c2.563,0,4.746,0.414,6.551,1.242s3,1.871,3.586,3.129s0.879,3.395,0.879,6.41V42.377
		z"/>
	<path d="M357.875,30.893h16.453v7.594h-6.586v7.195h6.164V52.9h-6.164v8.344h7.242v7.594h-17.109V30.893z"/>
	<path d="M377.82,30.893h6.984c4.656,0,7.809,0.18,9.457,0.539s2.992,1.277,4.031,2.754s1.559,3.832,1.559,7.066
		c0,2.953-0.367,4.938-1.102,5.953s-2.18,1.625-4.336,1.828c1.953,0.484,3.266,1.133,3.938,1.945s1.09,1.559,1.254,2.238
		s0.246,2.551,0.246,5.613v10.008h-9.164V56.229c0-2.031-0.16-3.289-0.48-3.773s-1.16-0.727-2.52-0.727v17.109h-9.867V30.893z
		 M387.688,37.385v8.438c1.109,0,1.887-0.152,2.332-0.457s0.668-1.293,0.668-2.965v-2.086c0-1.203-0.215-1.992-0.645-2.367
		S388.828,37.385,387.688,37.385z"/>
	<path d="M427.133,30.893l-5.021,37.945h-14.988l-5.701-37.945h10.406c1.209,10.452,2.072,19.296,2.59,26.531
		c0.51-7.312,1.051-13.804,1.623-19.475l0.686-7.056H427.133z"/>
	<path d="M438.664,30.893v37.945h-9.867V30.893H438.664z"/>
	<path d="M465.664,47.416h-9.867v-6.595c0-1.917-0.105-3.114-0.316-3.59c-0.211-0.475-0.676-0.713-1.395-0.713
		c-0.813,0-1.328,0.289-1.547,0.867s-0.328,1.828-0.328,3.75V58.76c0,1.844,0.109,3.047,0.328,3.609s0.711,0.844,1.477,0.844
		c0.734,0,1.215-0.282,1.441-0.846s0.34-1.887,0.34-3.971v-4.77h9.867v1.479c0,3.928-0.277,6.713-0.832,8.356
		c-0.555,1.643-1.781,3.083-3.68,4.319s-4.238,1.854-7.02,1.854c-2.891,0-5.273-0.523-7.148-1.57s-3.117-2.496-3.727-4.348
		s-0.914-4.637-0.914-8.355V44.275c0-2.734,0.094-4.785,0.281-6.152s0.746-2.684,1.676-3.949s2.219-2.262,3.867-2.988
		s3.543-1.09,5.684-1.09c2.906,0,5.305,0.562,7.195,1.686c1.891,1.123,3.133,2.524,3.727,4.201s0.891,4.287,0.891,7.829V47.416z"/>
	<path d="M469.203,30.893h16.453v7.594h-6.586v7.195h6.164V52.9h-6.164v8.344h7.242v7.594h-17.109V30.893z"/>
	<path d="M510.055,42.377h-9.164v-2.813c0-1.313-0.117-2.148-0.352-2.508s-0.625-0.539-1.172-0.539
		c-0.594,0-1.043,0.242-1.348,0.728c-0.305,0.484-0.457,1.219-0.457,2.204c0,1.267,0.171,2.221,0.514,2.861
		c0.327,0.642,1.257,1.415,2.788,2.32c4.393,2.607,7.159,4.746,8.3,6.418s1.711,4.367,1.711,8.086c0,2.703-0.316,4.695-0.949,5.977
		s-1.855,2.355-3.668,3.223s-3.922,1.301-6.328,1.301c-2.641,0-4.895-0.5-6.762-1.5s-3.09-2.273-3.668-3.82
		s-0.867-3.742-0.867-6.586v-2.484h9.164v4.617c0,1.422,0.129,2.336,0.387,2.742s0.715,0.609,1.371,0.609s1.145-0.258,1.465-0.773
		s0.48-1.281,0.48-2.297c0-2.234-0.305-3.695-0.914-4.383c-0.625-0.688-2.164-1.836-4.617-3.445
		c-2.453-1.625-4.078-2.805-4.875-3.539s-1.457-1.75-1.98-3.047s-0.785-2.953-0.785-4.969c0-2.906,0.371-5.031,1.113-6.375
		s1.941-2.395,3.598-3.152s3.656-1.137,6-1.137c2.563,0,4.746,0.414,6.551,1.242s3,1.871,3.586,3.129s0.879,3.395,0.879,6.41V42.377
		z"/>
</g>
<polygon fill-rule="evenodd" clip-rule="evenodd" fill="#255783" points="383.246,101.053 235.246,101.053 255.246,79.316 
	403.246,79.316 "/>
<polygon fill-rule="evenodd" clip-rule="evenodd" fill="#3173AF" points="381.246,99.053 233.246,99.053 253.246,77.316 
	401.246,77.316 "/>
<g>
	<path fill="#FFFFFF" d="M266.041,89.657l1.607,0.622c-0.251,1.121-0.668,1.94-1.252,2.457c-0.583,0.518-1.301,0.776-2.152,0.776
		c-1.071,0-1.939-0.412-2.605-1.237c-0.766-0.952-1.148-2.237-1.148-3.855c0-1.709,0.386-3.047,1.156-4.013
		c0.672-0.839,1.572-1.258,2.703-1.258c0.922,0,1.693,0.314,2.313,0.943c0.443,0.446,0.768,1.109,0.973,1.989l-1.641,0.479
		c-0.105-0.542-0.314-0.958-0.627-1.248c-0.313-0.289-0.682-0.434-1.105-0.434c-0.607,0-1.104,0.265-1.486,0.793
		c-0.384,0.528-0.576,1.401-0.576,2.618c0,1.263,0.188,2.16,0.561,2.693c0.374,0.533,0.859,0.8,1.457,0.8
		c0.438,0,0.815-0.17,1.135-0.51C265.67,90.935,265.9,90.396,266.041,89.657z"/>
	<path fill="#FFFFFF" d="M268.729,88.393c0-1.194,0.176-2.178,0.529-2.949c0.354-0.773,0.814-1.349,1.385-1.727
		c0.569-0.378,1.26-0.567,2.07-0.567c1.176,0,2.135,0.449,2.875,1.347s1.111,2.176,1.111,3.835c0,1.677-0.393,2.987-1.176,3.931
		c-0.688,0.834-1.623,1.251-2.803,1.251c-1.189,0-2.129-0.412-2.816-1.237C269.12,91.332,268.729,90.038,268.729,88.393z
		 M270.438,88.324c0,1.153,0.219,2.018,0.656,2.594c0.438,0.577,0.982,0.865,1.63,0.865c0.653,0,1.193-0.286,1.622-0.857
		c0.43-0.572,0.645-1.451,0.645-2.636c0-1.162-0.209-2.021-0.627-2.577s-0.965-0.834-1.64-0.834s-1.226,0.28-1.649,0.841
		C270.649,86.28,270.438,87.148,270.438,88.324z"/>
	<path fill="#FFFFFF" d="M277.662,88.393c0-1.194,0.178-2.178,0.53-2.949c0.353-0.773,0.814-1.349,1.384-1.727
		c0.57-0.378,1.261-0.567,2.072-0.567c1.176,0,2.133,0.449,2.874,1.347s1.11,2.176,1.11,3.835c0,1.677-0.392,2.987-1.176,3.931
		c-0.688,0.834-1.622,1.251-2.803,1.251c-1.189,0-2.128-0.412-2.816-1.237C278.055,91.332,277.662,90.038,277.662,88.393z
		 M279.371,88.324c0,1.153,0.22,2.018,0.658,2.594c0.438,0.577,0.98,0.865,1.629,0.865c0.652,0,1.193-0.286,1.623-0.857
		c0.429-0.572,0.643-1.451,0.643-2.636c0-1.162-0.209-2.021-0.626-2.577s-0.964-0.834-1.64-0.834s-1.226,0.28-1.65,0.841
		C279.584,86.28,279.371,87.148,279.371,88.324z"/>
	<path fill="#FFFFFF" d="M286.98,93.342v-9.939h1.654v8.244h4.129v1.695H286.98z"/>
	<path fill="#FFFFFF" d="M303.939,93.342h-1.799l-0.719-2.27h-3.29l-0.679,2.27h-1.764l3.199-10.021h1.758L303.939,93.342z
		 M300.888,89.377l-1.135-3.719l-1.113,3.719H300.888z"/>
	<path fill="#FFFFFF" d="M304.828,93.342V83.32h1.613l3.363,6.692V83.32h1.545v10.021h-1.668l-3.309-6.535v6.535H304.828z"/>
	<path fill="#FFFFFF" d="M313.086,83.32h3.025c0.766,0,1.342,0.086,1.731,0.256c0.39,0.172,0.748,0.46,1.075,0.865
		c0.328,0.405,0.586,0.932,0.771,1.579c0.188,0.647,0.281,1.451,0.281,2.413c0,0.866-0.099,1.619-0.295,2.26
		c-0.195,0.64-0.443,1.146-0.744,1.521c-0.3,0.374-0.663,0.655-1.089,0.845c-0.426,0.188-0.974,0.283-1.642,0.283h-3.115V83.32z
		 M314.74,85.016v6.631h1.244c0.533,0,0.92-0.05,1.159-0.15c0.239-0.1,0.435-0.251,0.588-0.454c0.153-0.202,0.279-0.522,0.38-0.959
		c0.1-0.438,0.15-1.014,0.15-1.728c0-0.742-0.052-1.327-0.154-1.756c-0.103-0.428-0.262-0.765-0.479-1.011
		c-0.217-0.245-0.479-0.407-0.789-0.484c-0.232-0.06-0.682-0.089-1.348-0.089H314.74z"/>
	<path fill="#FFFFFF" d="M324.578,93.342V83.32h1.654v3.944h3.26V83.32h1.654v10.021h-1.654V88.96h-3.26v4.382H324.578z"/>
	<path fill="#FFFFFF" d="M332.863,93.342V83.32h6.098v1.695h-4.443v2.222h4.129v1.688h-4.129v2.721h4.594v1.695H332.863z"/>
	<path fill="#FFFFFF" d="M347.93,93.342h-1.799l-0.72-2.27h-3.29l-0.68,2.27h-1.764l3.201-10.021h1.756L347.93,93.342z
		 M344.877,89.377l-1.135-3.719l-1.113,3.719H344.877z"/>
	<path fill="#FFFFFF" d="M349.809,93.342v-8.326h-2.439V83.32h6.527v1.695h-2.434v8.326H349.809z"/>
	<path fill="#FFFFFF" d="M354.922,93.342V83.32h1.654v10.021H354.922z"/>
	<path fill="#FFFFFF" d="M358.184,93.342V83.32h1.613l3.363,6.692V83.32h1.545v10.021h-1.668l-3.309-6.535v6.535H358.184z"/>
	<path fill="#FFFFFF" d="M370.275,89.664v-1.695h3.576v3.992c-0.36,0.424-0.871,0.788-1.531,1.094
		c-0.661,0.306-1.324,0.458-1.99,0.458c-0.811,0-1.526-0.199-2.146-0.599c-0.619-0.398-1.11-0.995-1.473-1.791
		c-0.362-0.795-0.543-1.73-0.543-2.806c0-1.103,0.184-2.046,0.55-2.83s0.843-1.369,1.429-1.757s1.286-0.581,2.102-0.581
		c0.98,0,1.766,0.249,2.355,0.749c0.59,0.498,0.97,1.231,1.139,2.197l-1.641,0.376c-0.123-0.515-0.35-0.909-0.678-1.183
		s-0.72-0.41-1.176-0.41c-0.706,0-1.277,0.274-1.715,0.824c-0.438,0.549-0.656,1.386-0.656,2.512c0,1.208,0.236,2.126,0.711,2.755
		c0.405,0.542,0.954,0.813,1.646,0.813c0.324,0,0.66-0.076,1.009-0.229c0.349-0.151,0.659-0.359,0.933-0.623v-1.268H370.275z"/>
</g>
</svg>
